<?xml version="1.0" encoding="UTF-8"?>
<svg width="18px" height="16px" viewBox="0 0 18 16" version="1.1" xmlns="http://www.w3.org/2000/svg" xmlns:xlink="http://www.w3.org/1999/xlink">
    <!-- Generator: Sketch 46.2 (44496) - http://www.bohemiancoding.com/sketch -->
    <title>Shape</title>
    <desc>Created with Sketch.</desc>
    <defs></defs>
    <g id="Page-1" stroke="none" stroke-width="1" fill="none" fill-rule="evenodd">
        <g id="Judges" transform="translate(-643.000000, -1490.000000)" fill-rule="nonzero" fill="#D02A38">
            <g id="Group-Copy-2" transform="translate(605.000000, 1489.000000)">
                <path d="M53.3786156,1 C55.1201612,1.05044316 55.9913657,2.14020582 56,4.27214324 C56,4.41205163 55.9956828,4.55767057 55.9887754,4.70709654 C55.9119298,6.51448456 54.6918981,8.97668193 52.3234998,12.0927369 C49.8808462,15.3572661 47.8086056,16.9914342 46.106778,17 C45.0482084,17 44.169233,16.0006543 43.4638077,14.0010112 L42.7229817,11.2599488 L41.99079,8.52269347 C41.451144,6.53923027 40.8743704,5.54940218 40.2587423,5.54940218 C40.1240466,5.54940218 39.6569291,5.83873654 38.8547993,6.41550175 L38,5.3009934 L39.326234,4.08655047 L40.6308821,2.8844804 C41.7991078,1.85277497 42.6875809,1.29504491 43.2971651,1.21224198 C43.3783278,1.20272441 43.4594906,1.19986913 43.5423802,1.19986913 C44.7934955,1.19986913 45.5749029,2.19064898 45.8814218,4.17316043 C46.0523816,5.30384867 46.1939847,6.22324668 46.3088214,6.92945095 C46.4202043,7.63755874 46.5134552,8.13056927 46.5877105,8.41133781 C47.0012952,10.2863006 47.4468269,11.2285408 47.9260325,11.2361549 C48.2938552,11.2361549 48.8602677,10.6251264 49.6252698,9.40306942 C50.3730033,8.14770091 50.7753634,7.21783356 50.8271694,6.61251561 C50.8435746,6.48973886 50.8496187,6.37457617 50.8496187,6.2679793 C50.8496187,5.44851585 50.4403511,5.04021177 49.6252698,5.04021177 C49.2116851,5.04021177 48.7704706,5.13729106 48.2981724,5.32478734 C49.1443373,2.4495271 50.7710462,1.00951758 53.1765722,1 C53.24392,1 53.3104044,1 53.3786156,1 Z" id="Shape"></path>
            </g>
        </g>
    </g>
</svg>